<svg xmlns="http://www.w3.org/2000/svg" width="460" height="190" viewBox="0 0 460 190" role="img"><rect x="0.5" y="0.5" width="459" height="189" rx="10" ry="10" fill="#161b22" stroke="#30363d" stroke-width="1"/><path d="M0.5 34 H459.5" stroke="#30363d" stroke-width="1"/><rect x="0.5" y="0.5" width="459" height="33.5" rx="10" ry="10" fill="#1f2630"/><rect x="0.5" y="24" width="459" height="10" rx="0" ry="0" fill="#1f2630"/><text x="14" y="22" font-family="-apple-system, BlinkMacSystemFont, 'Segoe UI', Helvetica, Arial, sans-serif" font-size="12" font-weight="700" fill="#8b949e" text-anchor="start">WORLD CUP 26 · TOURNAMENT STATS</text><rect x="14" y="44" width="136" height="60" rx="8" ry="8" fill="#1f2630"/><text x="82" y="75" font-family="ui-monospace, 'SF Mono', 'Cascadia Mono', Menlo, Consolas, monospace" font-size="26" font-weight="800" fill="#58a6ff" text-anchor="middle">34</text><text x="82" y="92" font-family="-apple-system, BlinkMacSystemFont, 'Segoe UI', Helvetica, Arial, sans-serif" font-size="10.5" font-weight="400" fill="#8b949e" text-anchor="middle">of 104 played</text><rect x="162" y="44" width="136" height="60" rx="8" ry="8" fill="#1f2630"/><text x="230" y="75" font-family="ui-monospace, 'SF Mono', 'Cascadia Mono', Menlo, Consolas, monospace" font-size="26" font-weight="800" fill="#58a6ff" text-anchor="middle">46</text><text x="230" y="92" font-family="-apple-system, BlinkMacSystemFont, 'Segoe UI', Helvetica, Arial, sans-serif" font-size="10.5" font-weight="400" fill="#8b949e" text-anchor="middle">goals</text><rect x="310" y="44" width="136" height="60" rx="8" ry="8" fill="#1f2630"/><text x="378" y="75" font-family="ui-monospace, 'SF Mono', 'Cascadia Mono', Menlo, Consolas, monospace" font-size="26" font-weight="800" fill="#58a6ff" text-anchor="middle">1.35</text><text x="378" y="92" font-family="-apple-system, BlinkMacSystemFont, 'Segoe UI', Helvetica, Arial, sans-serif" font-size="10.5" font-weight="400" fill="#8b949e" text-anchor="middle">goals / match</text><rect x="14" y="116" width="136" height="60" rx="8" ry="8" fill="#1f2630"/><text x="82" y="147" font-family="ui-monospace, 'SF Mono', 'Cascadia Mono', Menlo, Consolas, monospace" font-size="26" font-weight="800" fill="#58a6ff" text-anchor="middle">39</text><text x="82" y="164" font-family="-apple-system, BlinkMacSystemFont, 'Segoe UI', Helvetica, Arial, sans-serif" font-size="10.5" font-weight="400" fill="#8b949e" text-anchor="middle">clean sheets</text><rect x="162" y="116" width="136" height="60" rx="8" ry="8" fill="#1f2630"/><text x="230" y="147" font-family="ui-monospace, 'SF Mono', 'Cascadia Mono', Menlo, Consolas, monospace" font-size="26" font-weight="800" fill="#58a6ff" text-anchor="middle">0</text><text x="230" y="164" font-family="-apple-system, BlinkMacSystemFont, 'Segoe UI', Helvetica, Arial, sans-serif" font-size="10.5" font-weight="400" fill="#8b949e" text-anchor="middle">penalties</text><rect x="310" y="116" width="136" height="60" rx="8" ry="8" fill="#1f2630"/><text x="378" y="147" font-family="ui-monospace, 'SF Mono', 'Cascadia Mono', Menlo, Consolas, monospace" font-size="15" font-weight="800" fill="#58a6ff" text-anchor="middle">USA 0–3 AUS</text><text x="378" y="164" font-family="-apple-system, BlinkMacSystemFont, 'Segoe UI', Helvetica, Arial, sans-serif" font-size="10.5" font-weight="400" fill="#8b949e" text-anchor="middle">biggest win</text></svg>